<svg id="visual" viewBox="0 0 300 470" width="300" height="470" xmlns="http://www.w3.org/2000/svg" xmlns:xlink="http://www.w3.org/1999/xlink" version="1.1"><rect x="0" y="0" width="300" height="470" fill="#aea6f4"></rect><g transform="translate(98.66773901971845 161.37318967325965)"><path d="M139.1 -130.1C200.7 -114.1 285 -89.6 318.9 -35.8C352.7 18.1 336.1 101.3 290.3 155.4C244.5 209.5 169.5 234.4 95.7 259.9C22 285.4 -50.4 311.4 -101.2 288.4C-152 265.4 -181.2 193.4 -204.6 129.5C-227.9 65.5 -245.4 9.6 -225.4 -28.6C-205.4 -66.8 -147.9 -87.3 -104.1 -106.4C-60.3 -125.5 -30.1 -143.2 4.3 -148.4C38.8 -153.6 77.6 -146.1 139.1 -130.1" fill="#ffffff"></path></g></svg>